<svg  viewBox="0 0 1728 523" fill="none" xmlns="http://www.w3.org/2000/svg" preserveAspectRatio="none">
<g clip-path="url(#clip0_931_147)">
<path fill-rule="evenodd" clip-rule="evenodd" d="M0 317.059V31.573C124.46 223.553 372.254 480.758 813.017 480.758C1304.39 480.758 1565.58 306.636 1727.54 0C1727.54 21.1743 1727.7 40.3261 1728 57.6712V324.51C1642.1 403.671 1471.36 558.109 1314.04 587.805C822.598 680.571 560.094 621.774 465.315 600.545C447.226 596.493 435.246 593.81 428.95 593.81C394.971 593.81 125.333 491.653 0 317.059Z" fill="#F4D9D8"/>
<path fill-rule="evenodd" clip-rule="evenodd" d="M0 526.902V297C187.961 415.691 450.859 511.943 809.922 511.943C1223.93 511.943 1515.24 442.24 1728 313.371V536.63C1647.06 575.465 1560.67 607.148 1477.12 618.991C822.68 711.757 473.108 652.959 346.893 631.73C322.804 627.678 306.851 624.995 298.467 624.995C272.112 624.995 139.298 590.34 0 526.902Z" fill="#414812"/>
</g>
<defs>
<clipPath id="clip0_931_147">
<rect width="1728" height="523" fill="white"/>
</clipPath>
</defs>
</svg>
