<svg id="Layer_1" data-name="Layer 1" xmlns="http://www.w3.org/2000/svg" viewBox="0 0 390.95 318.53"><g id="tysvzM.tif"><path d="M123.2,214c.51-1.46,1-2.93,1.51-4.4,3.1-9.22,5.72-18.63,9.38-27.62,6.78-16.7,15-32.71,26.94-46.4a49.25,49.25,0,0,1,9.72-8.51c7-4.6,13.43-1.79,15.22,6.43a42.85,42.85,0,0,1-2.3,25.28A236.2,236.2,0,0,1,172.47,183c-3,5.54-7,10.49-10.58,15.73a29.28,29.28,0,0,0-3.53,6.72c1.94-.62,3.89-1.22,5.83-1.86,10.21-3.34,18.92,1.32,21.93,11.67a64.28,64.28,0,0,1,2.37,19c0,1.11.17,2.22.3,3.81a24.68,24.68,0,0,0,2.76-1.58c9-7.1,18-14.34,25.49-23.08a8.47,8.47,0,0,0,1.83-4.45c1.25-13,3.26-25.91,7.55-38.34a10.06,10.06,0,0,1,2.29-3.72,3.09,3.09,0,0,1,2.75-.32,2.6,2.6,0,0,1,1,2.2,34.72,34.72,0,0,1-1.26,6.56c-3.5,11.28-4.86,22.93-6.22,34.58-.78,6.6-1.55,13.22-1.76,19.85-.13,4.27.73,8.58,1.25,12.86a8.89,8.89,0,0,0,1,2.35l.85.28c1.82-2.6,4-5,5.4-7.84,4.61-9.58,9-19.28,13.31-29a31,31,0,0,1,9.05-12.35c4.57-3.58,10.22-2.84,12.95,1.79.51.86.34,2.12.49,3.2-1.07-.15-2.34,0-3.18-.5-4.3-2.67-5.6-2.58-8.79,1.35-3.32,4.11-6.13,8.51-7.35,13.74a29.25,29.25,0,0,0-.41,3.37l.66.33c.93-1.38,1.91-2.72,2.77-4.13,2.29-3.76,4.44-7.61,6.84-11.29.57-.88,1.9-1.27,2.88-1.88.65,1.09,1.66,2.1,1.88,3.27.54,2.84.52,5.8,1.09,8.64,1.27,6.29,5.4,8.08,11.08,5.1,5.38-2.82,7.73-7.41,8.44-13.26a38.28,38.28,0,0,1,2.15-7.35c.61-1.81,2.14-2,3.71-1.6,1.77.39,1.72,1.84,1.54,3.19-.54,3.87-1.26,7.71-1.7,11.59-.54,4.8-1,9.62,1.31,14.2,2,4,3.6,4.48,7.5,2.3,5.21-2.92,8.8-7.53,12.57-12a21.87,21.87,0,0,0,4.59-9.21c1-3.79,3-7.35,4.8-10.87.43-.81,2-1.05,3-1.55.37,1,1.15,2.05,1,3a57.73,57.73,0,0,1-1.63,6.5l-3.27,12.56.92.34c2-2.91,4-5.84,6.05-8.72a61.28,61.28,0,0,1,5.38-7.15c2.67-2.75,4.91-2.06,5.54,1.68.74,4.33.94,8.76,1.52,13.12a29.7,29.7,0,0,0,1.47,6.78c1.21,3.16,4.3,3.82,6.54,1.32,2.81-3.15,5.26-6.63,7.79-10a5,5,0,0,0,.67-2.09c1.19-6.94,4.57-12.39,10.75-16,2.7-1.56,6.61-1.67,8-.25s1.36,5.52-.47,8c-2.54,3.45-5.57,6.38-9.74,7.9-1.31.48-3.29.42-3.28,2.48,0,2.25.26,4.53,2.38,6,3.14,2.19,6.3,1.89,9.68.46,5.56-2.35,9.95-6.29,14.46-10.11a21,21,0,0,1,3.54-2l.63.67c-.13.75,0,1.75-.42,2.23-5.64,6.22-11.81,11.82-20.13,14.11-5.3,1.47-10.11.41-13.36-4.61a1.33,1.33,0,0,0-.53-.49,92,92,0,0,0-6.89,6.18c-6.11,6.64-12.31,2.93-14.52-3.92-1.35-4.18-1.18-8.84-1.71-13.29-.11-.94-.28-1.87-.42-2.8l-.84-.33c-1.44,2.14-2.95,4.23-4.31,6.42-2.15,3.46-4.14,7-6.33,10.45a8.66,8.66,0,0,1-2.77,2.75c-2.21,1.3-4.06.43-4.81-2-.26-.86-.5-1.74-.78-2.72-2.55,2.44-5.06,4.65-7.35,7.09a19.34,19.34,0,0,1-8.93,5.69c-4.82,1.35-9.27-.55-11.36-5.17-1.25-2.77-2-5.77-3.08-9-.58.36-1.24.72-1.84,1.16a34.28,34.28,0,0,1-4,3c-7.24,3.84-14.58.64-16.93-7.27-.35-1.17-.67-2.34-1.19-4.19-1.92,3.18-3.5,5.78-5,8.39-.47.78-.84,1.62-1.3,2.42-2.67,4.68-6,5.16-10.05,1.14-.55,1-1.11,1.82-1.54,2.72-2.64,5.47-5.09,11-7.94,16.38a20.74,20.74,0,0,1-4.56,5.23c-1.67,1.55-3.89,1.08-5.67-1-2.47-2.86-3.13-6.4-3.41-10-.38-4.73-.56-9.48-.84-14.22,0-.79-.21-1.58-.39-2.94-3.23,2.91-6,5.58-9,8.06-6,5-12,10-18.1,14.86a7.92,7.92,0,0,0-3.27,5.29,101.94,101.94,0,0,1-15.76,41.16c-7.8,11.63-17.14,22-30.93,26.92-4.38,1.58-8.91,2.41-13.49,1.4-12.61-2.77-16.44-14.14-10.82-25.25A56.84,56.84,0,0,1,137.11,270q16.15-10.14,32.44-20.08c3.26-2,6.72-3.68,9.89-5.8a6.14,6.14,0,0,0,2.53-3.67c1.27-8.39,1.26-16.71-1.85-24.83-2.3-6-7.61-9-13.68-7.16-5.6,1.68-11,3.85-15.26,8.12a20.63,20.63,0,0,1-5.31,3.69,3.84,3.84,0,0,1-3.34-.25,3.11,3.11,0,0,1-.5-3c2.17-3.63,4.59-7.11,6.95-10.63,7.05-10.49,14.79-20.59,21-31.57,6-10.69,10.82-22.18,10.75-34.93a23.24,23.24,0,0,0-.87-6.15c-.92-3.26-3.16-4.15-6.18-2.55-5.2,2.75-9,7.12-12.62,11.57-7.86,9.71-13.49,20.76-18.59,32.08-8,17.71-13.82,36.12-19.06,54.8-3.52,12.55-5.61,25.31-7.83,38.08a5.2,5.2,0,0,1-.63,2.37c-.76.91-1.84,2.12-2.81,2.15-1.59.05-2.32-1.36-2.18-3,.38-4.39.71-8.78,1.14-13.17.9-9.2,1.77-18.41,2.8-27.59,1.14-10.09,2.48-20.15,3.68-30.23,1.17-9.83,2.45-19.66,3.34-29.53.77-8.44,1.21-16.92,1.47-25.39.09-2.82-.82-5.67-1.28-8.5l-1-.44c-1.58,1.68-3.6,3.12-4.68,5.08-3.75,6.83-7.51,13.71-10.65,20.84A74.23,74.23,0,0,0,98,192.82a53.37,53.37,0,0,0,.68,5.45,4.92,4.92,0,0,0,3.94,4.57c.81.21,1.39,1.36,2.08,2.08a8.75,8.75,0,0,1-2.49,1.3A6.6,6.6,0,0,1,95,202.08c-2.09-4.63-2.33-9.51-1.79-14.45a107.49,107.49,0,0,1,11.16-38.06A147.3,147.3,0,0,1,112.54,135c1.59-2.38,4.23-4.15,6.66-5.82,2-1.35,4.63-.34,6.23,2a20.34,20.34,0,0,1,3.43,12.08c-.14,9.05-.43,18.13-1.23,27.14-1.11,12.35-2.75,24.65-4.19,37-.26,2.18-.69,4.33-1,6.5Zm57.33,36.12c-2.46,1.21-4.61,2.09-6.59,3.27-10.69,6.42-21.57,12.57-31.9,19.52-5.66,3.82-10.66,8.77-15.41,13.74a26.63,26.63,0,0,0-6.91,12.27c-2,8.49,2.32,14.52,10.87,14.5a22.27,22.27,0,0,0,8.71-1.81,55,55,0,0,0,21.87-17.25,106.84,106.84,0,0,0,19.13-41A23,23,0,0,0,180.53,250.14Zm181.23-42.95c3.86-.16,8.94-5.2,8.53-8.35C366.41,200.58,364.28,203.86,361.76,207.19Z" transform="translate(0 0)"/><path d="M25.11,34A32.54,32.54,0,0,0,24,37.14a642.39,642.39,0,0,0-13.52,66.18,404.38,404.38,0,0,0-5.11,62c0,3.33.34,6.65.49,10a8.73,8.73,0,0,1-.15,3.2,9.88,9.88,0,0,1-2,2.44c-.83-.79-2.26-1.5-2.38-2.38C.81,174.89.8,171.2.43,167.56c-1.17-11.77.31-23.47,1.22-35.15A355.38,355.38,0,0,1,6.14,95C9.71,75.7,14.19,56.58,18.46,37.43c.8-3.62,2.41-7.07,3.67-10.59a4.66,4.66,0,0,1,4.63-3.49,4,4,0,0,1,4.15,3.32c1.62,6.87,3.78,13.72,4.39,20.69,1.75,20.07,2.59,40.21,4.28,60.29,1.52,17.89,3,35.82,7.93,53.22a31.67,31.67,0,0,0,3,6.81c1.15,2,2.74,2.27,4.25.53a26.59,26.59,0,0,0,4.19-6.42c6.35-14.28,10.17-29.36,13.37-44.57,2.94-14,5.83-28.06,7.7-42.23,2.15-16.26,2.87-32.65.19-49C79,18.83,78.58,11.57,77.89,4.35c-.16-1.71-.43-4,1.82-4.32s2.21,2.09,2.43,3.6c2.77,19,5.28,37.87,4.08,57.16C84.6,86.78,79.1,112,72.28,137c-2.83,10.37-5.88,20.63-10.81,30.21a18.73,18.73,0,0,1-4.77,5.91c-3.26,2.61-7.69,1.69-10-1.79a47.79,47.79,0,0,1-7.12-18.51c-2.45-13.74-5.11-27.49-6.55-41.36-2.19-21-3.39-42-5.06-63-.32-4.06-.86-8.11-1.34-12.16A14.53,14.53,0,0,0,26,34Z" transform="translate(0 0)"/><path d="M136.85,88.31c-2,1.73-3.53,3.08-5.09,4.38-3,2.46-6.29,4.24-10.23,4-5.64-.39-9-3.82-11-8.86-.63-1.61-1.09-3.28-1.81-5.49-1.82,3.18-3.34,5.91-4.94,8.61-1,1.8-2.14,3.58-3.32,5.29a5.18,5.18,0,0,1-5.64,2.26c-2.6-.5-3.64-2.45-3.76-4.67a26.53,26.53,0,0,1,.49-8.41C93.64,78,96.72,71,102.62,65.63c2.94-2.67,6.23-4.49,10.42-3.39A8.57,8.57,0,0,1,119,67.49a2.7,2.7,0,0,1-.24,2.45,3,3,0,0,1-2.52.08,12,12,0,0,1-2.65-1.85c-1.67-1.28-3.64-1.48-5,0-5.42,5.55-9.87,11.73-11.17,19.65a11.43,11.43,0,0,0,.22,2.35,19.85,19.85,0,0,0,1.59-1.92c2.81-4.63,5.58-9.27,8.37-13.9a7.17,7.17,0,0,1,1.38-2c.79-.61,1.94-1.38,2.72-1.19a3.3,3.3,0,0,1,1.76,2.32c.5,2.78.67,5.61,1,8.42a19.56,19.56,0,0,0,.7,3.66c1.87,5.66,6.43,7.41,11.61,4.45a26.64,26.64,0,0,0,9.87-10c.89-1.53.91-3.66,1-5.54Q138.9,50.15,140.05,26c0-.8,0-1.6,0-2.84-3.1.7-5.86,1.17-8.54,1.95-10.6,3.11-21.36,5.81-31.24,11a4.53,4.53,0,0,0-2.09,1.63,3,3,0,0,1-3.67,1.83c-1-.21-2.33-.83-2.59-1.59A3.26,3.26,0,0,1,92.84,35a45.37,45.37,0,0,1,7.9-4.68c12.09-5.27,24.72-8.9,37.52-12,2.42-.57,3.76-1.65,4.29-4.12a70.78,70.78,0,0,1,2.34-7.9,6.82,6.82,0,0,1,1.58-2.49c2-2,4.21-1.61,4.88,1.1a23.23,23.23,0,0,1,.48,6.18c0,.69-1,1.32-1.53,2s-.77,1.32-1.15,2a6.76,6.76,0,0,0,2.23.45c6.16-1,12.28-2.25,18.46-3a130.41,130.41,0,0,1,15.69-.73c1.52,0,3.12,1.24,4.5,2.17.4.27.47,1.67.13,2.2a2.31,2.31,0,0,1-2.06.88c-4.4-2.13-8.87-.87-13.24-.26-8.23,1.14-16.41,2.65-24.62,3.94-2,.31-2.73,1.33-3,3.3-1.76,15.57-3.36,31.13-3.35,46.83s-.29,31.66-.36,47.49c0,2.9.43,5.81.64,8.71.22,3.18-.82,5.35-2.63,5.56s-3.55-2.11-3.63-5.12q-.51-17.85-1-35.71C137,90.88,136.92,89.92,136.85,88.31Z" transform="translate(0 0)"/><path d="M194.31,82.34c-2.59,4.37-4.78,8.09-7,11.79a29.19,29.19,0,0,1-1.72,2.45,4.68,4.68,0,0,1-5,1.92,4.11,4.11,0,0,1-3.57-4,49.71,49.71,0,0,1,.29-8.88c.34-2.61.34-2.9-2.29-3l-6.74-.14c-3.37,0-6,1.47-7.09,4.54a116.36,116.36,0,0,0-3.64,13.12c-.46,2-.15,4.4-2.85,4.88-1.64.29-2.73-1.71-2.63-4.91.27-9.15.57-18.3,1-27.44A12.44,12.44,0,0,1,154.33,68a3.31,3.31,0,0,1,2.54-1.48c.59,0,1.59,1.25,1.68,2a47.8,47.8,0,0,1,.13,6.45c0,2.16-.19,4.31-.3,6.41.34.12.58.26.62.22,3.6-4,8.39-3.86,13-3.28,5.54.69,8.86-1.07,11.18-6.34,2.21-5.06,6.13-8.91,12-10,3.9-.75,8.84,2.27,9.73,6.08a2.66,2.66,0,0,1-.58,2.17c-.35.35-1.44.27-2,0a14,14,0,0,1-2.46-1.69c-2.44-1.81-4.35-1.77-6.7.35a30.43,30.43,0,0,0-8.34,12.85c-.86,2.51-2.47,4.92-1.47,8.2a19.89,19.89,0,0,0,1.31-1.66c2.87-4.69,5.7-9.39,8.56-14.09a5.67,5.67,0,0,1,1.28-1.82c.9-.6,2.14-1.43,3-1.21a3.62,3.62,0,0,1,1.88,2.56c.56,3.35.64,6.79,1.24,10.14a12.63,12.63,0,0,0,2,4.74c1.75,2.57,4.26,3.26,7.25,2.27,4.2-1.39,7.16-4.44,10.07-7.56a45.72,45.72,0,0,1,3.85-3.9A2.53,2.53,0,0,1,226,79a2.56,2.56,0,0,1,.7,2.17,8.63,8.63,0,0,1-1.28,3.18,33.51,33.51,0,0,1-11.46,10.59c-6.48,3.72-13.61,1.52-16.8-5.22C196.12,87.55,195.41,85.25,194.31,82.34Z" transform="translate(0 0)"/><path d="M287.51,72.28,295.82,65l.76.75-7.85,8.17,9.57,8.54-.71.9a6.28,6.28,0,0,1-1.52-.65c-2.42-1.89-4.93-3.69-7.15-5.8-1.48-1.39-2.4-1.15-3.74.07-3.18,2.93-6.5,5.67-10.91,6.57A7.17,7.17,0,0,1,266,77.88c-1.23-6.23,1.93-11.06,5.1-15.79,1.86-2.79,3.86-5.3,5-8.65,1.81-5.32,6.52-7.88,11.75-9.29.72-.19,1.64.38,2.48.59-.31.79-.39,1.81-1,2.33-3.11,2.86-6.29,5.67-9.54,8.37-1.94,1.62-2.72,3.1-1.46,5.71C280.5,65.63,283.78,69,287.51,72.28ZM274.94,60.66c-3.07,3.81-6.55,7.93-7.14,13.43-.64,5.9,2.7,8.38,7.67,6.8a22.55,22.55,0,0,0,9.78-6.62Zm11.95-13.92c-4,1-7.21,3-8.52,7.11Z" transform="translate(0 0)"/><path d="M297,178.33c0,2.72-2,5.07-4.17,4.9-2.38-.18-3.87-2.51-3.43-5.35a2,2,0,0,1,0-.24c.57-3.1,2.21-5,4.13-4.79C295.28,173.05,296.94,175.7,297,178.33Z" transform="translate(0 0)"/></g></svg>