<svg width="216" height="634" viewBox="0 0 216 634" fill="none" xmlns="http://www.w3.org/2000/svg">
<path d="M0.0626356 95C-3.04621 232.801 110.286 285.367 185.039 289L188 95L0.0626356 95Z" fill="#ECC447"/>
<path d="M6.06009 289C3.00083 424.462 117.439 499.429 191 503L191 289L6.06009 289Z" fill="#E2C2D8"/>
<path d="M120.336 575.393C20.9904 488.306 2.97181 348.178 6.38073 289C15.6331 319.441 45.8438 381.868 72.1229 410.279C103.885 444.617 140.652 462.638 154.288 467.996L211.645 608.27C222.603 633.597 219.682 662.48 120.336 575.393Z" fill="#DC6E2B"/>
<path d="M131.546 1C112.141 1 99.2341 27.3304 92.273 38.2626C77.9787 60.7113 71.0004 87.1984 71.0004 112.145C71.0004 121.092 70.9195 129.662 73.0004 138.486C75.3129 148.292 81.7293 157.335 85.7276 166.754C96.884 193.035 115.153 213.82 143 231" stroke="white" stroke-width="2" stroke-linecap="round"/>
</svg>
