<svg width="127" height="160" viewBox="0 0 127 160" fill="none" xmlns="http://www.w3.org/2000/svg">
<g clip-path="url(#clip0_968_46)">
<path d="M45.4337 160.989C51.5781 155.565 62.0526 153.916 69.3178 148.887C82.9884 139.422 98.216 131.989 109.308 119.435C116.817 110.936 120.297 105.818 114.358 94.4569C111.181 88.3786 100.063 85.6791 93.8473 84.8367C88.7759 84.1494 78.7465 88.0011 74.3129 90.0709C66.4492 93.742 58.1925 95.913 50.5255 100.156C42.0997 104.819 17.328 118.588 24.0314 111.69C38.7716 96.5216 49.4705 72.9924 59.5207 54.5697C60.8804 52.0774 79.2544 19.7189 68.8929 19.5634C62.4995 19.4675 51.1742 26.749 46.0509 30.1192C34.1539 37.9453 24.8474 46.3084 15.8336 57.3146C10.8886 63.3527 6.03289 68.8737 2.08846 75.6611C-1.17672 81.2798 0.95671 77.352 1.90215 73.2671C5.15645 59.2068 10.4755 45.8774 10.2455 31.0237C10.0718 19.8096 5.32438 21.2548 0.500001 26.0871L-2 28.5" stroke="#F8EDE4" stroke-width="2" stroke-linecap="round"/>
</g>
<defs>
<clipPath id="clip0_968_46">
<rect width="127" height="160" fill="white"/>
</clipPath>
</defs>
</svg>
