<svg width="147" height="124" viewBox="0 0 147 124" fill="none" xmlns="http://www.w3.org/2000/svg">
<path d="M58.5173 122.703C42.044 122.703 26.4166 118.255 13.6651 107.404C7.16617 101.873 -9.21451 81.7135 10.4302 86.6526C24.8373 90.2749 36.3358 98.8626 49.0748 105.645C52.7757 107.616 56.0175 110.693 51.4354 106.085C45.9001 100.518 41.8241 94.3988 37.2716 88.0595C28.9733 76.5042 23.3039 65.3503 18.8236 51.8331C16.8942 46.0122 12.792 33.1882 14.5395 27.0374C17.3714 17.0693 43.8717 43.1922 45.9273 45.1506C61.121 59.6265 81.0794 76.0507 91.9161 94.2144C96.8443 102.475 89.9551 74.9834 87.6319 65.6378C85.518 57.134 85.5579 48.5967 84.0473 40.0508C83.1955 35.2326 82.0708 24.5481 84.0473 19.8273C86.4698 14.041 91.9547 4.00141 98.6483 2.50549C111.16 -0.290649 115.202 4.39559 121.468 13.8482C130.724 27.8115 133.962 44.444 139.566 60.0984C142.544 68.4178 141.426 78.962 145.074 86.3009" stroke="#F8EDE4" stroke-width="2" stroke-linecap="round"/>
</svg>
