<svg width="554" height="149" viewBox="0 0 554 149" fill="none" xmlns="http://www.w3.org/2000/svg">
<g clip-path="url(#clip0_803_364)">
<path d="M521 18.5C521 72.4673 477.452 116 424 116C370.548 116 327 72.4673 327 18.5C327 -35.4673 370.548 -79 424 -79C477.452 -79 521 -35.4673 521 18.5Z" stroke="#715D6D" stroke-width="66"/>
<path d="M553.968 30C555.589 102.162 494.968 142.098 456 144L456 30H553.968Z" fill="#E2C2D8"/>
<path d="M62.5127 50.367C141.847 77.2157 224.587 42.6232 256.04 21.9709C236.375 26.5579 192.49 29.8015 168.55 24.4052C139.615 17.883 118.065 3.43636 110.802 -2.34209L15.5245 10.7203C-1.86873 12.7488 -16.8217 23.5182 62.5127 50.367Z" fill="#DC6E2B"/>
</g>
<defs>
<clipPath id="clip0_803_364">
<rect width="554" height="149" fill="white"/>
</clipPath>
</defs>
</svg>
