<svg width="177" height="139" viewBox="0 0 177 139" fill="none" xmlns="http://www.w3.org/2000/svg">
<path d="M165.955 131.881C159.742 133.675 151.947 134.645 146.513 132.283C142.429 130.507 137.92 128.099 134.389 125.29C130.808 122.441 128.663 118.805 125.565 115.427C120.139 109.511 115.46 101.84 111.021 94.7147C108.118 90.0544 104.089 83.953 99.3374 81.8871C93.3937 79.303 87.5669 75.8378 80.8154 75.5561C72.6189 75.2142 62.6937 77.6275 54.9823 75.8854C43.6199 73.3184 30.5733 67.3133 22.7146 57.9824C19.1683 53.7718 11.9983 43.9463 14.1634 36.0013C14.4421 26.8347 18.0994 7.10134 30.4994 1.50134" stroke="#F8EDE4" stroke-width="2.5" stroke-linecap="round"/>
</svg>
