<svg width="146" height="375" viewBox="0 0 146 375" fill="none" xmlns="http://www.w3.org/2000/svg">
<g clip-path="url(#clip0_812_749)">
<path d="M146 0.814526C31.9379 -9.51746 3.32498 81.0887 1 122.673L146 123L146 0.814526Z" fill="#EEC543"/>
<path d="M0.69472 122.623C-7.04092 260.257 103.107 290.952 153.215 292.039L147.646 122.62C125.007 123.394 63.9208 120.462 0.69472 122.623Z" fill="#F4D9D8"/>
<path d="M171.711 229.942C171.807 229.945 171.904 229.949 172 229.953C171.899 230.02 171.802 230.015 171.711 229.942C136.307 228.572 57.0573 221.4 53 121L172 121C170.686 159.148 168.863 227.664 171.711 229.942Z" fill="#F8EDE4"/>
<ellipse cx="139.5" cy="330.5" rx="44.5" ry="44.5" transform="rotate(-90 139.5 330.5)" fill="#414812"/>
</g>
<defs>
<clipPath id="clip0_812_749">
<rect width="146" height="375" fill="white"/>
</clipPath>
</defs>
</svg>
