<svg width="185" height="375" viewBox="0 0 185 375" fill="none" xmlns="http://www.w3.org/2000/svg">
<g clip-path="url(#clip0_803_334)">
<path d="M146.285 0.814526C32.223 -9.51746 3.61014 81.0887 1.28516 122.673L146.285 123L146.285 0.814526Z" fill="#DC6E2B"/>
<path d="M0.979876 122.623C-6.75576 260.257 103.392 290.952 153.501 292.039L147.931 122.62C125.292 123.394 64.206 120.462 0.979876 122.623Z" fill="#ECC447"/>
<path d="M171.996 229.942C172.093 229.945 172.189 229.949 172.285 229.953C172.184 230.02 172.087 230.015 171.996 229.942C136.592 228.572 57.3424 221.4 53.2852 121L172.285 121C170.971 159.148 169.148 227.664 171.996 229.942Z" fill="#F8EDE4"/>
<ellipse cx="139.785" cy="330.5" rx="44.5" ry="44.5" transform="rotate(-90 139.785 330.5)" fill="#E2C2D8"/>
</g>
<defs>
<clipPath id="clip0_803_334">
<rect width="184.285" height="375" fill="white"/>
</clipPath>
</defs>
</svg>
