<svg width="162" height="276" viewBox="0 0 162 276" fill="none" xmlns="http://www.w3.org/2000/svg">
<path d="M83.0863 19.9302C69.14 26.6661 24.6276 30.3632 -60.0108 116.499L-71.0004 127.683C-28.5561 169.132 60.0508 254.605 74.9245 264.901C93.5166 277.77 114.526 277.975 108.64 272.191C102.754 266.407 40.7587 206.261 47.0305 211.653C53.3024 217.044 97.825 214.514 109.116 215.582C120.408 216.65 125.269 216.413 124.24 210.003C123.211 203.593 94.9211 193.921 86.3016 186.993C77.6821 180.066 45.3501 175.292 42.2108 172.208C39.0714 169.123 65.0035 176.093 85.783 172.215C106.562 168.337 139.157 158.714 148.49 158.243C157.823 157.772 158.763 154.068 155.238 151.376C151.713 148.683 132.242 146.52 99.9 140.579C67.5579 134.638 49.87 136.154 43.5981 130.763C37.3262 125.371 66.4984 124.727 87.6566 119.678C108.815 114.63 145.786 93.8811 151.956 87.6024C158.125 81.3237 163.588 83.221 160.439 78.9692C157.289 74.7175 138.417 74.2993 102.057 75.9797C65.6967 77.6602 41.0612 85.4624 31.5732 90.4085C22.0851 95.3547 26.1203 89.6782 52.6291 73.6898C79.138 57.7014 109.999 27.864 127.02 16.8218C144.041 5.7795 146.162 3.6212 143.022 0.536429C139.883 -2.54835 97.0326 13.1943 83.0863 19.9302Z" fill="#F1CE50"/>
</svg>
